<?xml version="1.0" encoding="UTF-8" standalone="no"?>
<svg xmlns:dc="http://purl.org/dc/elements/1.1/" xmlns:cc="http://creativecommons.org/ns#" xmlns:rdf="http://www.w3.org/1999/02/22-rdf-syntax-ns#" xmlns:svg="http://www.w3.org/2000/svg" xmlns="http://www.w3.org/2000/svg" viewBox="0 0 232.73334 240.54668" height="240.54668" width="232.73334" xml:space="preserve" id="svg2" version="1.1"><metadata id="metadata8"><rdf:RDF><cc:Work rdf:about=""><dc:format>image/svg+xml</dc:format><dc:type rdf:resource="http://purl.org/dc/dcmitype/StillImage"/></cc:Work></rdf:RDF></metadata><defs id="defs6"><clipPath id="clipPath20" clipPathUnits="userSpaceOnUse"><path id="path18" d="m 1354.24,647.98 c 66.03,67.86 176.81,258.157 74.55,458.61 22.68,-159.723 -74.12,-252.379 -74.12,-252.379 0,0 55.99,160.359 38.77,274.299 -10.44,68.96 -60.73,138.07 -92.93,172.14 46.96,-156.53 -1.56,-310.291 -1.56,-310.291 0,0 43.3,176.171 -70.43,338.981 -52.06,74.54 -165.01,117.23 -181.87,125.14 128.11,-160.55 148.79,-297.95 160.69,-401 30.51,-264.05 -82.73,-421.949 -137.02,-481.121 52.36,-152.398 143.34,-159.031 172.37,-156.929 120.44,89.519 202.2,209.781 217.1,327.172 0,0.046 -28.23,-52.293 -105.55,-94.622 z"/></clipPath><linearGradient id="linearGradient28" spreadMethod="pad" gradientTransform="matrix(0,1039.31,1039.31,0,1258.47,415.17)" gradientUnits="userSpaceOnUse" y2="0" x2="1" y1="0" x1="0"><stop id="stop22" offset="0" style="stop-opacity:1;stop-color:#bf1b2c"/><stop id="stop24" offset="0.309803" style="stop-opacity:1;stop-color:#ed1c24"/><stop id="stop26" offset="1" style="stop-opacity:1;stop-color:#f03e39"/></linearGradient><clipPath id="clipPath38" clipPathUnits="userSpaceOnUse"><path id="path36" d="m 951.191,880.773 c 32.571,-0.257 48.457,-7.074 75.829,-19.308 -38.817,-7.363 -94.223,-35.348 -94.223,-35.348 -0.965,18.028 5.644,38.649 18.394,54.656 z M 1166.58,389.98 c -27.76,2.168 -54.14,27.008 -77.52,60.93 -21.41,26.57 -41.32,62.57 -57.54,110.289 -22.11,52.942 -35.68,98.121 -36.461,100.09 -11.067,27.871 -16.414,68.301 13.901,99.332 48.82,49.969 114.66,26.59 114.66,26.59 0,0 -0.34,82.91 -72.96,80.859 l -7.12,26.618 C 977.258,950.613 901.09,939.031 843.406,918.711 785.32,898.25 751.578,902.844 751.578,902.844 773.66,861.406 811.402,857.875 811.402,857.875 760.535,817.996 759.719,737.91 737.305,693.781 648.676,755.961 581.145,1001 593.008,1166.05 c 15.121,210.43 115.972,296.63 115.972,296.63 -63.019,-22.11 -110.496,-72.77 -146.484,-128.66 -81.75,-126.98 -47.961,-357.704 -47.961,-357.704 0,0 -89.183,211.504 -0.43,396.734 -14.636,-11.5 -50.82,-53.66 -73.949,-98.22 -91.5,-176.26 10.254,-373.256 10.254,-373.256 0,0 -108.547,118.636 -97.953,281.716 -23.719,-40.43 -41.437,-106.12 -36.113,-175.66 8.808,-114.903 103.441,-247.341 103.441,-247.341 0,0 -119.187,57.297 -132.969,218.024 -54.609,-218.293 96.082,-378.833 175.68,-430.122 -84.855,23.86 -124.121,68.528 -124.105,68.481 44.601,-121.121 167.382,-227.84 323.136,-285.543 209.391,-77.59 423.723,-18.328 529.013,50.191 -7.67,2.121 -15.73,5.059 -23.96,8.66 z"/></clipPath><linearGradient id="linearGradient46" spreadMethod="pad" gradientTransform="matrix(0,1168.25,1168.25,0,732.848,294.43)" gradientUnits="userSpaceOnUse" y2="0" x2="1" y1="0" x1="0"><stop id="stop40" offset="0" style="stop-opacity:1;stop-color:#bf1b2c"/><stop id="stop42" offset="0.309803" style="stop-opacity:1;stop-color:#ed1c24"/><stop id="stop44" offset="1" style="stop-opacity:1;stop-color:#f03e39"/></linearGradient></defs><g transform="matrix(1.3333333,0,0,-1.3333333,0,240.54667)" id="g10"><g transform="scale(0.1)" id="g12"><g id="g14"><g clip-path="url(#clipPath20)" id="g16"><path id="path30" style="fill:url(#linearGradient28);fill-opacity:1;fill-rule:nonzero;stroke:none" d="m 1354.24,647.98 c 66.03,67.86 176.81,258.157 74.55,458.61 22.68,-159.723 -74.12,-252.379 -74.12,-252.379 0,0 55.99,160.359 38.77,274.299 -10.44,68.96 -60.73,138.07 -92.93,172.14 46.96,-156.53 -1.56,-310.291 -1.56,-310.291 0,0 43.3,176.171 -70.43,338.981 -52.06,74.54 -165.01,117.23 -181.87,125.14 128.11,-160.55 148.79,-297.95 160.69,-401 30.51,-264.05 -82.73,-421.949 -137.02,-481.121 52.36,-152.398 143.34,-159.031 172.37,-156.929 120.44,89.519 202.2,209.781 217.1,327.172 0,0.046 -28.23,-52.293 -105.55,-94.622"/></g></g><g id="g32"><g clip-path="url(#clipPath38)" id="g34"><path id="path48" style="fill:url(#linearGradient46);fill-opacity:1;fill-rule:nonzero;stroke:none" d="m 951.191,880.773 c 32.571,-0.257 48.457,-7.074 75.829,-19.308 -38.817,-7.363 -94.223,-35.348 -94.223,-35.348 -0.965,18.028 5.644,38.649 18.394,54.656 z M 1166.58,389.98 c -27.76,2.168 -54.14,27.008 -77.52,60.93 -21.41,26.57 -41.32,62.57 -57.54,110.289 -22.11,52.942 -35.68,98.121 -36.461,100.09 -11.067,27.871 -16.414,68.301 13.901,99.332 48.82,49.969 114.66,26.59 114.66,26.59 0,0 -0.34,82.91 -72.96,80.859 l -7.12,26.618 C 977.258,950.613 901.09,939.031 843.406,918.711 785.32,898.25 751.578,902.844 751.578,902.844 773.66,861.406 811.402,857.875 811.402,857.875 760.535,817.996 759.719,737.91 737.305,693.781 648.676,755.961 581.145,1001 593.008,1166.05 c 15.121,210.43 115.972,296.63 115.972,296.63 -63.019,-22.11 -110.496,-72.77 -146.484,-128.66 -81.75,-126.98 -47.961,-357.704 -47.961,-357.704 0,0 -89.183,211.504 -0.43,396.734 -14.636,-11.5 -50.82,-53.66 -73.949,-98.22 -91.5,-176.26 10.254,-373.256 10.254,-373.256 0,0 -108.547,118.636 -97.953,281.716 -23.719,-40.43 -41.437,-106.12 -36.113,-175.66 8.808,-114.903 103.441,-247.341 103.441,-247.341 0,0 -119.187,57.297 -132.969,218.024 -54.609,-218.293 96.082,-378.833 175.68,-430.122 -84.855,23.86 -124.121,68.528 -124.105,68.481 44.601,-121.121 167.382,-227.84 323.136,-285.543 209.391,-77.59 423.723,-18.328 529.013,50.191 -7.67,2.121 -15.73,5.059 -23.96,8.66"/></g></g></g></g></svg>